<svg width="83" height="20" xmlns="http://www.w3.org/2000/svg" xmlns:xlink="http://www.w3.org/1999/xlink"><defs><path d="M8.21 9.125l-.423.449a.288.288 0 0 1-.424 0l-.424-.449-.851-.9a.33.33 0 0 1 0-.45l.424-.448a.288.288 0 0 1 .424 0l.637.675 1.489-1.576a.288.288 0 0 1 .424 0l.424.449c.12.124.12.325.003.449L8.21 9.125zM7.9 1.333c3.737 0 6.767 2.985 6.767 6.667s-3.03 6.667-6.767 6.667c-3.155 0-5.802-2.124-6.554-5a.238.238 0 0 1-.013-.08.32.32 0 0 1 .323-.318h2.729a.323.323 0 0 1 .297.197A3.552 3.552 0 0 0 7.9 11.491c1.955 0 3.543-1.562 3.543-3.491 0-1.926-1.585-3.49-3.543-3.49-1.426 0-2.654.83-3.218 2.024l-.006.012a.323.323 0 0 1-.291.185H1.656a.32.32 0 0 1-.323-.317c0-.028.007-.056.013-.08.752-2.877 3.402-5 6.554-5z" id="a"/></defs><g fill="none" fill-rule="evenodd"><path d="M4 0h76a3 3 0 0 1 3 3v14a3 3 0 0 1-3 3H4a4 4 0 0 1-4-4V4a4 4 0 0 1 4-4z" fill="#239922"/><g transform="translate(5 2)"><path d="M0 0h16v16H0z"/><mask id="b" fill="#fff"><use xlink:href="#a"/></mask><use fill="#51BD88" xlink:href="#a"/><g mask="url(#b)" fill="#FFF"><path d="M0 0h16v16H0z"/></g></g><path d="M27.94 11.493V15h-2.051V5.047h3.882c.748 0 1.405.137 1.973.41a3.022 3.022 0 0 1 1.309 1.166c.305.503.458 1.076.458 1.719 0 .975-.334 1.744-1.002 2.307-.667.563-1.591.844-2.772.844H27.94zm0-1.661h1.831c.543 0 .956-.128 1.241-.383.285-.255.427-.62.427-1.094 0-.487-.143-.881-.43-1.182-.287-.3-.684-.456-1.19-.465h-1.88v3.124zm11.562 3.117h-3.596L35.223 15h-2.181l3.705-9.953h1.9L42.373 15h-2.18l-.691-2.05zm-3.042-1.66h2.488l-1.25-3.726-1.238 3.725zm12.184 1.1c0-.388-.136-.685-.41-.892-.273-.208-.765-.427-1.476-.657-.711-.23-1.274-.457-1.689-.68-1.13-.61-1.695-1.433-1.695-2.468 0-.537.152-1.017.455-1.439.303-.421.738-.75 1.305-.987.568-.237 1.205-.356 1.91-.356.712 0 1.345.129 1.901.386.556.258.988.621 1.296 1.09.307.47.461 1.003.461 1.6h-2.05c0-.455-.144-.81-.431-1.063-.287-.253-.69-.38-1.21-.38-.502 0-.891.107-1.17.319a1.003 1.003 0 0 0-.416.837c0 .324.163.595.489.814.325.218.805.424 1.439.615 1.166.35 2.016.786 2.55 1.306.533.52.8 1.166.8 1.941 0 .861-.327 1.537-.978 2.027-.652.49-1.53.735-2.632.735-.766 0-1.463-.14-2.092-.42-.629-.281-1.109-.665-1.439-1.153-.33-.487-.496-1.052-.496-1.695h2.058c0 1.098.656 1.648 1.969 1.648.487 0 .868-.1 1.141-.298.274-.198.41-.475.41-.83zm8.788 0c0-.388-.137-.685-.41-.892-.274-.208-.766-.427-1.477-.657-.711-.23-1.274-.457-1.689-.68-1.13-.61-1.695-1.433-1.695-2.468 0-.537.152-1.017.455-1.439.303-.421.738-.75 1.305-.987.568-.237 1.205-.356 1.911-.356.71 0 1.344.129 1.9.386.556.258.988.621 1.296 1.09.307.47.461 1.003.461 1.6h-2.05c0-.455-.144-.81-.431-1.063-.287-.253-.69-.38-1.21-.38-.502 0-.891.107-1.17.319a1.003 1.003 0 0 0-.416.837c0 .324.163.595.489.814.325.218.805.424 1.439.615 1.166.35 2.016.786 2.55 1.306.533.52.8 1.166.8 1.941 0 .861-.327 1.537-.978 2.027-.652.49-1.53.735-2.632.735-.766 0-1.463-.14-2.092-.42-.629-.281-1.109-.665-1.439-1.153-.33-.487-.496-1.052-.496-1.695h2.058c0 1.098.656 1.648 1.969 1.648.487 0 .868-.1 1.141-.298.274-.198.41-.475.41-.83zm9.614-1.702h-3.938v2.666h4.621V15h-6.671V5.047h6.658v1.661h-4.608V9.08h3.938v1.607zM69.113 15V5.047h3.063c.875 0 1.657.197 2.348.591.69.394 1.23.955 1.617 1.682s.58 1.553.58 2.478v.458c0 .925-.19 1.748-.57 2.468a4.088 4.088 0 0 1-1.61 1.674c-.693.397-1.474.597-2.345.602h-3.083zm2.051-8.292v6.645h.991c.802 0 1.415-.263 1.839-.787.424-.524.64-1.273.65-2.249v-.526c0-1.012-.21-1.778-.63-2.3-.419-.522-1.032-.783-1.838-.783h-1.012z" fill="#FFF"/></g></svg>